<?xml version="1.0" encoding="utf-8"?>
<!-- Generator: Adobe Illustrator 23.0.3, SVG Export Plug-In . SVG Version: 6.00 Build 0)  -->
<svg version="1.1" id="Layer_1" xmlns="http://www.w3.org/2000/svg" xmlns:xlink="http://www.w3.org/1999/xlink" x="0px" y="0px"
	 width="999.9px" height="1000px" viewBox="0 0 999.9 1000" style="enable-background:new 0 0 999.9 1000;" xml:space="preserve">
<style type="text/css">
	.st0{fill:#455A64;fill-opacity:2.000000e-03;}
	.st1{fill:#CE001B;}
	.st2{fill:#780011;}
	.st3{fill:#6D7096;}
	.st4{fill:#60BBD5;}
	.st5{fill:#0F99BE;}
	.st6{fill:#8C9D26;}
	.st7{fill:#FCD813;}
	.st8{fill:#FFFFFF;}
</style>
<g>
	<g>
		<path class="st0" d="M500.3,1000c178.5,0,343.3-95.3,432.6-250c89.2-154.7,89.2-345.3,0-500C843.7,95.3,678.8,0,500.3,0
			C321.9,0,157,95.3,67.8,250s-89.2,345.3,0,500S321.9,1000,500.3,1000v-48c-161.3,0-310.4-86.2-391.1-226
			c-80.7-139.9-80.7-312.2,0-452C189.9,134.1,339,48,500.3,48s310.4,86.2,391.1,226c80.7,139.9,80.7,312.2,0,452
			c-80.7,139.9-229.8,226-391.1,226V1000z"/>
		<path class="st1" d="M500.3,1000c152,0,295.8-69.3,390.5-188.2l-37.5-29.9C767.7,889.4,637.8,952,500.3,952L500.3,1000z"/>
		<path class="st2" d="M890.9,811.8c94.8-119,130.3-274.7,96.5-423l-46.7,10.7c30.6,134.1-1.5,274.9-87.2,382.4L890.9,811.8z"/>
		<path class="st3" d="M987.3,388.7C953.5,240.4,854,115.5,717.1,49.5l-20.8,43.2C820.1,152.4,910,265.3,940.6,399.4L987.3,388.7z"
			/>
		<path class="st4" d="M717.1,49.5c-136.9-66-296.5-66-433.4,0l20.8,43.2c123.8-59.7,268-59.7,391.9,0L717.1,49.5z"/>
		<path class="st5" d="M283.6,49.5c-136.9,66-236.4,190.9-270.3,339.2l46.7,10.7c30.6-134.1,120.5-247,244.3-306.7L283.6,49.5
			L283.6,49.5z"/>
		<path class="st6" d="M13.4,388.7c-33.8,148.3,1.7,304,96.5,423l37.5-29.9C61.6,674.3,29.5,533.5,60.1,399.4L13.4,388.7L13.4,388.7
			z"/>
		<path class="st7" d="M109.8,811.8c94.8,119,238.5,188.2,390.5,188.2v-48c-137.4,0-267.4-62.6-353.1-170.2L109.8,811.8z"/>
		<path class="st8" d="M279,624.4v-44h86.8l28.3-162.8H308v-45h93.8l23-140.9h53.2l-24,140.9h134.8l23-140.9h53.1l-23,140.9H722v45
			h-87.8l-28.3,162.8H693v44h-93.8l-24,143.9h-52.1l24-143.9H412.2l-24,143.9h-52.1l23-143.9L279,624.4z M581.1,417.6H445.3
			l-26.4,162.8h135.9L581.1,417.6z"/>
	</g>
</g>
</svg>
